#!OML:ASF I:\golf\golf\golf 2\Subject 1\2002-09-07\Subject1.ASF
:FULLY-SPECIFIED
:DEGREES
186
root -5.86545 17.7689 2.4233 -5.44743 58.5141 -20.5681
lowerback 4.20826 -3.63605 -10.9605
upperback 4.74337 -4.99981 0.513495
thorax 3.64288 -2.86291 6.67464
lowerneck -10.1071 13.1153 4.50186
upperneck 28.7057 22.7144 -12.6486
head 13.4928 9.23309 -2.00497
rclavicle 8.11041e-014 -3.49861e-014
rhumerus -11.7176 -3.14713 -94.3427
rradius 71.0923
rwrist -50.9564
rhand -58.7692 10.454
rfingers 7.12502
rthumb -30.9794 -16.9514
lclavicle 8.11041e-014 -3.49861e-014
lhumerus 67.197 -70.6954 41.9486
lradius 24.9058
lwrist 7.647
lhand -1.01185 27.4686
lfingers 7.12502
lthumb -155.379 -124.095
rfemur -31.6652 11.6405 20.8912
rtibia 28.2197
rfoot -7.74768 10.3439
rtoes 8.91819
lfemur -19.172 20.0066 -1.0817
ltibia 35.8864
lfoot -11.9773 13.2445
ltoes -28.9547
187
root -5.85872 17.7731 2.45604 -5.34369 57.9726 -20.3832
lowerback 4.14999 -3.91349 -11.0805
upperback 4.71475 -5.36175 0.35078
thorax 3.7144 -3.0453 6.55441
lowerneck -9.81831 13.5544 4.51009
upperneck 28.2637 23.2791 -12.7578
head 13.3271 9.50232 -1.96359
rclavicle -2.06736e-014 4.45278e-014
rhumerus -11.3763 -3.79796 -94.3218
rradius 72.3484
rwrist -49.7521
rhand -59.0302 12.1868
rfingers 7.12502
rthumb -31.2281 -15.1709
lclavicle -2.06736e-014 4.45278e-014
lhumerus 68.9449 -69.9809 40.7074
lradius 25.091
lwrist 6.75476
lhand -1.87555 26.1852
lfingers 7.12502
lthumb -156.207 -125.268
rfemur -31.5551 11.7055 21.1332
rtibia 28.2492
rfoot -7.80083 10.5943
rtoes 9.15887
lfemur -18.7636 20.3141 -0.841299
ltibia 35.9299
lfoot -12.1815 13.082
ltoes -27.2291
188
root -5.85502 17.7766 2.49169 -5.27673 57.3516 -20.2229
lowerback 4.15948 -4.10519 -11.3292
upperback 4.6505 -5.6253 0.264812
thorax 3.71294 -3.18038 6.59587
lowerneck -9.63547 13.9652 4.4985
upperneck 28.0298 23.8277 -12.7703
head 13.2533 9.7558 -1.87937
rclavicle -1.31198e-013 3.18055e-014
rhumerus -11.0757 -4.70285 -94.2159
rradius 73.7481
rwrist -48.135
rhand -59.4201 11.7487
rfingers 7.12502
rthumb -31.5996 -15.5367
lclavicle -1.31198e-013 3.18055e-014
lhumerus 69.8188 -69.3113 40.599
lradius 25.1497
lwrist 5.78538
lhand -2.53684 24.9514
lfingers 7.12502
lthumb -156.842 -126.421
rfemur -31.4142 11.9532 21.3929
rtibia 28.2628
rfoot -8.01287 10.5723
rtoes 7.89989
lfemur -18.3267 20.6877 -0.558904
ltibia 36.0102
lfoot -12.1787 13.0475
ltoes -26.2235
189
root -5.85256 17.7759 2.52691 -5.16601 56.7261 -20.003
lowerback 4.24676 -4.25314 -11.6881
upperback 4.54772 -5.8484 0.255655
thorax 3.64162 -3.29618 6.78902
lowerneck -9.35741 14.3118 4.55701
upperneck 27.7195 24.3097 -12.9542
head 13.1604 9.98185 -1.8868
rclavicle -5.96354e-014 3.18055e-014
rhumerus -10.8049 -5.40836 -93.8726
rradius 75.2431
rwrist -46.4709
rhand -60.2409 10.3251
rfingers 7.12502
rthumb -32.3812 -16.8037
lclavicle -5.96354e-014 3.18055e-014
lhumerus 70.2029 -68.6348 41.28
lradius 25.0724
lwrist 4.98233
lhand -2.82265 23.7447
lfingers 7.12502
lthumb -157.116 -127.593
rfemur -31.2623 12.1252 21.6437
rtibia 28.2607
rfoot -8.16298 10.8159
rtoes 6.68591
lfemur -17.8971 21.0257 -0.307171
ltibia 36.1368
lfoot -11.9753 13.1749
ltoes -26.7423
190
root -5.84787 17.7752 2.55936 -5.06907 56.1753 -19.8958
lowerback 4.23587 -4.46226 -11.7932
upperback 4.46089 -6.13245 0.178909
thorax 3.61795 -3.43439 6.75865
lowerneck -9.10444 14.6272 4.63516
upperneck 27.3111 24.7206 -13.1656
head 13.0321 10.181 -1.91857
rclavicle 1.41535e-013 3.49861e-014
rhumerus -10.4011 -5.61775 -93.5254
rradius 76.6012
rwrist -45.4346
rhand -61.2595 12.9186
rfingers 7.12502
rthumb -33.3501 -14.0071
lclavicle 1.41535e-013 3.49861e-014
lhumerus 70.7439 -67.8652 41.7288
lradius 25.0127
lwrist 4.18006
lhand -3.30038 21.6108
lfingers 7.12502
lthumb -157.574 -129.671
rfemur -31.2212 12.0968 21.9547
rtibia 28.2945
rfoot -8.15825 11.4065
rtoes 6.54438
lfemur -17.5917 21.2729 -0.0569706
ltibia 36.251
lfoot -11.9807 13.2777
ltoes -26.4135
191
root -5.84248 17.7734 2.59079 -5.02595 55.6871 -19.8117
lowerback 4.24025 -4.66211 -11.7602
upperback 4.3927 -6.39761 -0.012007
thorax 3.5696 -3.55396 6.5329
lowerneck -8.82761 14.8934 4.83368
upperneck 26.9 25.0282 -13.3584
head 12.9012 10.3505 -1.9808
rclavicle -1.23246e-013 2.22639e-014
rhumerus -9.89511 -6.11559 -93.378
rradius 77.8937
rwrist -44.552
rhand -61.8416 16.6878
rfingers 7.12502
rthumb -33.9033 -10.1174
lclavicle -1.23246e-013 2.22639e-014
lhumerus 71.7771 -67.2103 41.4924
lradius 25.1182
lwrist 3.47701
lhand -4.10885 19.1572
lfingers 7.12502
lthumb -158.351 -132.033
rfemur -31.1489 12.1782 22.2119
rtibia 28.3478
rfoot -8.09605 11.8701
rtoes 7.22927
lfemur -17.2663 21.4477 0.197703
ltibia 36.3281
lfoot -11.9246 13.3537
ltoes -26.3076
192
root -5.83929 17.7713 2.62566 -5.01653 55.1518 -19.6722
lowerback 4.32365 -4.78991 -11.9021
upperback 4.31475 -6.58345 -0.147703
thorax 3.47875 -3.63879 6.47277
lowerneck -8.46174 15.1357 4.98595
upperneck 26.4718 25.3039 -13.5443
head 12.7361 10.5121 -2.0488
rclavicle -7.95139e-016 -1.90833e-014
rhumerus -9.40775 -6.9492 -93.2363
rradius 79.2316
rwrist -43.212
rhand -62.1492 18.1913
rfingers 7.12502
rthumb -34.1954 -8.54889
lclavicle -7.95139e-016 -1.90833e-014
lhumerus 72.6032 -66.6092 41.5907
lradius 25.2851
lwrist 2.87904
lhand -4.6111 17.2524
lfingers 7.12502
lthumb -158.833 -133.883
rfemur -30.9887 12.4016 22.4334
rtibia 28.4011
rfoot -8.01688 12.2518
rtoes 8.35706
lfemur -16.8094 21.7203 0.492331
ltibia 36.376
lfoot -11.6688 13.3682
ltoes -27.1426
193
root -5.83566 17.7723 2.65906 -4.8013 54.6317 -19.3374
lowerback 4.40196 -4.93176 -12.2056
upperback 4.20381 -6.79564 -0.234898
thorax 3.38918 -3.74174 6.55227
lowerneck -8.22034 15.4115 4.97927
upperneck 26.1339 25.6462 -13.6306
head 12.6035 10.6861 -2.03824
rclavicle 4.53229e-014 -9.54166e-015
rhumerus -8.95581 -7.55379 -92.9786
rradius 80.6255
rwrist -41.6367
rhand -62.7164 18.6892
rfingers 7.12502
rthumb -34.7339 -7.92859
lclavicle 4.53229e-014 -9.54166e-015
lhumerus 72.74 -65.9036 42.5147
lradius 25.4349
lwrist 1.93672
lhand -5.0712 15.6056
lfingers 7.12502
lthumb -159.275 -135.481
rfemur -30.8866 12.421 22.57
rtibia 28.4676
rfoot -7.96035 12.8249
rtoes 9.26021
lfemur -16.3714 21.8706 0.637646
ltibia 36.3897
lfoot -11.6179 13.3994
ltoes -27.0594
194
root -5.83107 17.7745 2.69061 -4.49139 54.1895 -18.9824
lowerback 4.41997 -5.1452 -12.3723
upperback 4.09472 -7.09 -0.381331
thorax 3.32682 -3.88047 6.48515
lowerneck -8.05695 15.7293 4.9628
upperneck 25.7771 26.0331 -13.6851
head 12.4781 10.8777 -2.00095
rclavicle -3.57812e-014 3.18055e-015
rhumerus -8.4478 -7.94161 -92.7616
rradius 82.0481
rwrist -40.1498
rhand -63.393 19.6312
rfingers 7.12502
rthumb -35.3757 -6.83628
lclavicle -3.57812e-014 3.18055e-015
lhumerus 73.4614 -65.1763 42.6754
lradius 25.6244
lwrist 1.22489
lhand -5.98177 14.0656
lfingers 7.12502
lthumb -160.15 -136.928
rfemur -30.8743 12.4207 22.6473
rtibia 28.5527
rfoot -7.99696 13.3224
rtoes 9.31908
lfemur -16.0605 21.9664 0.68314
ltibia 36.3774
lfoot -11.4949 13.5277
ltoes -27.3952
195
root -5.82649 17.7764 2.72369 -4.31555 53.7728 -18.7845
lowerback 4.39705 -5.38149 -12.4011
upperback 4.05062 -7.4004 -0.526902
thorax 3.3406 -4.0298 6.33444
lowerneck -7.91536 16.0375 4.93895
upperneck 25.2927 26.3938 -13.8136
head 12.3154 11.0577 -1.99276
rclavicle -1.28017e-013 1.90833e-014
rhumerus -7.75851 -8.20157 -92.6289
rradius 83.4202
rwrist -38.9668
rhand -63.9576 22.5608
rfingers 7.12502
rthumb -35.9108 -3.77753
lclavicle -1.28017e-013 1.90833e-014
lhumerus 75.1921 -64.395 41.7547
lradius 25.7682
lwrist 0.932296
lhand -6.92281 12.7028
lfingers 7.12502
lthumb -161.055 -138.2
rfemur -30.8532 12.4786 22.8022
rtibia 28.6519
rfoot -8.02808 13.7324
rtoes 9.34554
lfemur -15.6995 22.0461 0.866834
ltibia 36.3557
lfoot -11.489 13.4307
ltoes -27.1816
196
root -5.82159 17.7762 2.76156 -4.20151 53.1512 -18.6396
lowerback 4.33 -5.55777 -12.6045
upperback 4.00991 -7.63368 -0.534067
thorax 3.41205 -4.15395 6.42013
lowerneck -7.86738 16.2988 4.79539
upperneck 24.8545 26.7287 -13.979
head 12.1784 11.2055 -1.97858
rclavicle -1.59028e-015 6.67916e-014
rhumerus -7.00626 -8.2529 -92.3975
rradius 84.7254
rwrist -37.9745
rhand -64.1904 25.8858
rfingers 7.12502
rthumb -36.1313 -0.398331
lclavicle -1.59028e-015 6.67916e-014
lhumerus 75.8135 -63.451 42.2105
lradius 25.7942
lwrist 0.0269194
lhand -7.66742 11.2656
lfingers 7.12502
lthumb -161.771 -139.569
rfemur -30.7535 12.7174 23.0292
rtibia 28.6408
rfoot -7.94453 14.2027
rtoes 10.0418
lfemur -15.1807 22.1265 1.22653
ltibia 36.4273
lfoot -11.7651 13.1423
ltoes -26.0189
197
root -5.82167 17.7735 2.80866 -4.02218 52.2637 -18.4119
lowerback 4.22567 -5.6211 -13.0024
upperback 3.91593 -7.72094 -0.526204
thorax 3.44912 -4.20753 6.63182
lowerneck -7.83358 16.5251 4.6701
upperneck 24.5909 27.0153 -14.0185
head 12.0887 11.3345 -1.93086
rclavicle 5.56597e-014 -8.5875e-014
rhumerus -6.26678 -8.29959 -92.005
rradius 85.8708
rwrist -36.6037
rhand -64.0407 26.7325
rfingers 7.12502
rthumb -35.9895 0.413443
lclavicle 5.56597e-014 -8.5875e-014
lhumerus 75.0497 -62.5679 44.2268
lradius 25.7844
lwrist -1.7405
lhand -8.20208 9.79886
lfingers 7.12502
lthumb -162.286 -140.988
rfemur -30.693 13.3757 23.2179
rtibia 28.7237
rfoot -8.0007 14.4958
rtoes 10.3039
lfemur -14.5615 22.5522 1.60796
ltibia 36.4345
lfoot -11.6834 13.0645
ltoes -26.2983
